<svg xmlns="http://www.w3.org/2000/svg" width="32" height="32" fill="#000000" viewBox="0 0 256 256"><path d="M245.54,153.27C235.32,130.61,215.1,114.77,192,108.31a88.64,88.64,0,0,0-15.06-2.58A63.85,63.85,0,0,0,144,48.65V40a16,16,0,0,0-32,0v8.65a63.85,63.85,0,0,0-32.94,57.08A88.64,88.64,0,0,0,64,108.31c-23.1,6.46-43.32,22.3-53.54,45a16,16,0,0,0,7.27,21.35,93.68,93.68,0,0,0,34.79,9.22A145,145,0,0,0,96,204.66V208a16,16,0,0,0,32,0v-3.34a145,145,0,0,0,43.48-20.78,93.68,93.68,0,0,0,34.79-9.22A16,16,0,0,0,245.54,153.27ZM128,64a47.88,47.88,0,0,1,44.75,32A153.79,153.79,0,0,0,128,88a153.79,153.79,0,0,0-44.75,8A47.88,47.88,0,0,1,128,64ZM96,128a135.59,135.59,0,0,1,32-7.83A135.59,135.59,0,0,1,160,128c0,29.83-14.33,56-32,56S96,157.83,96,128Zm114.73,34.74a78.85,78.85,0,0,1-27.47,7.18c-3.13-10.42-7.87-21.2-14.37-31.54A163.67,163.67,0,0,0,188,124.6a72.58,72.58,0,0,1,30.34,17.41A1.79,1.79,0,0,1,210.73,162.74ZM27.24,142a72.58,72.58,0,0,1,30.34-17.41A163.67,163.67,0,0,0,77.11,138.38C70.61,148.72,65.87,159.5,62.74,169.92a78.85,78.85,0,0,1-27.47-7.18A1.79,1.79,0,0,1,27.24,142Z"/></svg>